# xmcd
#
# Track frame offsets: 
#        150
#        22165
#        48734
#        79957
#        97215
#        113662
#        135144
#        155196
#        173011
#        189719
#        211451
#        240626
#        261327
#        281060
#        303698
#
# Disc length: 4214 seconds
#
# Revision: 3
# Processed by: cddbd v1.5.2PL0 Copyright (c) Steve Scherf et al.
# Submitted via: ExactAudioCopy v0.99pb4
#
DISCID=e210740f
DTITLE=Various Artist - Classic Soul Ballads Sweet Thing
DYEAR=2004
DGENRE=Soul
TTITLE0=Marvin Gaye - Let's Get It On
TTITLE1=Smokey Robinson - Cruisin'
TTITLE2=Barry White - It's Ecstasy When You Lay Down Next To Me
TTITLE3=The Temptations - Just My Imagination (Running Away With Me)
TTITLE4=Commodores - Three Times A Lady
TTITLE5=The Stylistics - You Make Me Feel Brand New
TTITLE6=Jeffrey Osborne - You Should Be Mine (The Woo Woo Song)
TTITLE7=Boys II Men - I'll Make Love To You
TTITLE8=Vanessa Williams - Save The Best For Last
TTITLE9=Patti LaBelle and Michael McDonald - On My Own
TTITLE10=Ready for the World - Love You Down
TTITLE11=Oleta Adams - Get Here
TTITLE12=Kool and the Gang - Joanna
TTITLE13=Stephanie Mills - I Feel Good All Over
TTITLE14=The Miracles - Ooo Baby Baby
EXTD=
EXTT0=
EXTT1=
EXTT2=
EXTT3=
EXTT4=
EXTT5=
EXTT6=
EXTT7=
EXTT8=
EXTT9=
EXTT10=
EXTT11=
EXTT12=
EXTT13=
EXTT14=
PLAYORDER=
